<svg width="40" height="48" viewBox="0 0 40 48" fill="none" xmlns="http://www.w3.org/2000/svg">
<path d="M28.6569 0.625703C26.4312 0.87756 23.2812 2.80132 21.7171 4.85905C20.8147 6.03796 20.2843 7.16328 19.8249 8.85663L19.5952 9.7033L19.6062 10.6036C19.6171 11.0966 19.6444 11.5574 19.6718 11.6324C19.7429 11.8093 19.8796 11.836 20.8421 11.8414C21.6405 11.8468 21.6897 11.8414 22.3733 11.6431C24.1999 11.1233 25.5397 10.341 26.4913 9.23173C26.721 8.95844 27.0655 8.59405 27.246 8.41186C27.8476 7.83312 28.6187 6.54704 29.0452 5.43243C29.4718 4.31247 29.6632 3.27289 29.7179 1.79389L29.7507 0.845408L29.6085 0.706083C29.4499 0.550681 29.3624 0.545323 28.6569 0.625703Z" fill="#717171"/>
<path d="M28.1483 11.7021C27.0655 11.7557 24.1507 12.5488 22.0562 13.3526C20.7874 13.8402 20.7874 13.8402 20.5358 13.8831C20.0983 13.9527 19.0265 13.6473 17.1835 12.9185C16.2046 12.538 15.1983 12.2487 13.7108 11.9164C13.0874 11.7825 12.0538 11.7664 11.6054 11.8896C11.4249 11.9379 10.8562 12.0504 10.3421 12.1361C9.23741 12.329 8.61397 12.5166 7.78272 12.9185C5.27257 14.1188 3.56085 15.8443 2.2046 18.5451C1.60303 19.7347 1.16007 20.8976 0.831941 22.1354C0.345222 23.9734 0.334285 27.4995 0.810066 29.6376C0.864753 29.9001 0.913972 30.2109 0.913972 30.3342C0.913972 30.5914 0.963191 30.7843 1.42257 32.558C1.84913 34.1978 1.80538 34.0638 2.62022 36.068C3.76319 38.8813 4.12413 39.5029 6.45928 42.6591C7.41632 43.9506 7.90304 44.54 8.6085 45.242C9.34679 45.9815 9.94288 46.4102 10.7851 46.8175C11.7366 47.273 12.1523 47.3748 13.0273 47.3694C14.1483 47.3694 15.0507 47.1444 16.7679 46.437C17.8507 45.9922 17.9218 45.9708 19.8905 45.5743C20.4812 45.451 21.028 45.4617 21.8593 45.5957C22.1437 45.6386 22.5702 45.7029 22.7999 45.735C23.2648 45.7993 23.7351 45.9494 24.9491 46.4263C26.4148 47.005 27.4483 47.2622 28.5312 47.3265C30.1062 47.423 31.6265 46.7371 33.2507 45.2099C34.9077 43.6398 36.4554 41.491 38.0194 38.5919C38.4405 37.8095 39.1132 36.2073 39.228 35.725C39.2773 35.5321 39.3593 35.291 39.4194 35.1945C39.4741 35.0981 39.5233 34.9641 39.5233 34.9051C39.5233 34.7122 39.1241 34.4068 38.4187 34.0585C37.0898 33.3886 35.7827 32.2419 34.9023 30.9504C34.2733 30.0234 33.639 28.6355 33.4804 27.8156C33.2124 26.4652 33.1358 24.9862 33.289 23.9574C33.3273 23.6894 33.464 23.1268 33.5952 22.6981C34.1585 20.8386 34.5468 20.0938 35.4273 19.1721C35.6952 18.8988 35.914 18.6469 35.914 18.6255C35.914 18.5344 37.2538 17.4359 37.5819 17.259C37.7624 17.1572 37.9921 17.0018 38.0905 16.9054C38.3913 16.616 38.3476 16.5035 37.5929 15.6353C36.5812 14.4725 35.3069 13.5187 33.8085 12.806C32.8733 12.3612 32.228 12.1415 31.3257 11.9593C30.4015 11.7664 29.0233 11.6539 28.1483 11.7021Z" fill="#717171"/>
</svg>
